<?xml version="1.0" encoding="utf-8"?>
<!-- Generator: Adobe Illustrator 24.3.0, SVG Export Plug-In . SVG Version: 6.00 Build 0)  -->
<svg version="1.1" id="Layer_1" xmlns="http://www.w3.org/2000/svg" xmlns:xlink="http://www.w3.org/1999/xlink" x="0px" y="0px"
	 viewBox="0 0 671.8 282.3" style="enable-background:new 0 0 671.8 282.3;" xml:space="preserve">
<style type="text/css">
	.st0{fill:#FFFFFF;}
	.st1{fill:#ED1C24;}
</style>
<path class="st0" d="M530.6,282.3c78,0,141.1-63.2,141.1-141.1C671.8,63.2,608.6,0,530.6,0c-78,0-141.1,63.2-141.1,141.1
	C389.5,219.1,452.7,282.3,530.6,282.3L530.6,282.3z"/>
<g>
	<path class="st1" d="M448.8,142.7h-59.3c0.5,46.8,23.8,88.1,59.3,113.4V142.7z"/>
	<path class="st1" d="M530.6,0c-66.9,0-123,46.6-137.5,109.1h55.7h33.7h59.6v33.6h-59.6v118.6h-25.8c21.5,13.3,46.9,21,74,21
		c78,0,141.1-63.2,141.1-141.1C671.8,63.2,608.6,0,530.6,0z"/>
</g>
<path d="M332.1,261.3h33.6V108.4h-33.6V261.3L332.1,261.3z M316.8,261.3l-37.4-54.6c19.4-7.2,32.8-22.7,32.8-47.4v-0.4
	c0-14.4-4.6-26.4-13.1-35c-10-10-25.1-15.5-44.6-15.5h-35v30.4h32.2c16.4,0,26.4,7.4,26.4,21.8v0.4c0,12.9-9.4,21.6-25.8,21.6H223
	l54.5,78.6H316.8L316.8,261.3z"/>
<path d="M62.3,184.9c-0.5,3.5-0.7,7-0.7,10.6v0.4c0,44.2,32,76.9,78.6,76.9c27.3,0,48.5-10.7,63.9-23.7v-64.2h-64.9v27.7h33.1v21.4
	c-8.3,6-19,9-31,9c-26.5,0-45.3-20.1-45.3-47.4v-0.4c0-3.5,0.4-6.9,1.1-10.2H62.3L62.3,184.9z"/>
<path class="st1" d="M17,99.4c-0.4-0.6-0.9-1.1-1.5-1.5c-0.6-0.4-1.3-0.8-2.2-1c-0.8-0.2-1.7-0.4-2.6-0.4c-0.9,0-1.8,0.1-2.6,0.4
	c-0.8,0.2-1.5,0.6-2.2,1c-0.6,0.4-1.1,0.9-1.5,1.5c-0.4,0.6-0.5,1.2-0.5,1.8c0,0.6,0.2,1.2,0.5,1.8c0.4,0.6,0.9,1.1,1.5,1.5
	c0.6,0.4,1.3,0.8,2.2,1c0.8,0.2,1.7,0.4,2.6,0.4c0.9,0,1.8-0.1,2.6-0.4c0.8-0.2,1.5-0.6,2.2-1c0.6-0.4,1.1-0.9,1.5-1.5
	c0.4-0.6,0.5-1.2,0.5-1.8C17.5,100.6,17.3,100,17,99.4L17,99.4z"/>
<path class="st1" d="M139.3,99.4c-0.4-0.6-0.9-1.1-1.5-1.5c-0.6-0.4-1.3-0.8-2.2-1c-0.8-0.2-1.7-0.4-2.6-0.4c-0.9,0-1.8,0.1-2.6,0.4
	c-0.8,0.2-1.5,0.6-2.2,1c-0.6,0.4-1.1,0.9-1.5,1.5c-0.4,0.6-0.5,1.2-0.5,1.8c0,0.6,0.2,1.2,0.5,1.8c0.4,0.6,0.9,1.1,1.5,1.5
	c0.6,0.4,1.3,0.8,2.2,1c0.8,0.2,1.7,0.4,2.6,0.4c0.9,0,1.8-0.1,2.6-0.4c0.8-0.2,1.5-0.6,2.2-1s1.1-0.9,1.5-1.5
	c0.4-0.6,0.5-1.2,0.5-1.8C139.8,100.6,139.6,100,139.3,99.4L139.3,99.4z"/>
<path d="M21.2,139.1v1H0v-1h4.6v-29.3H0v-1c1.1,0,2.5,0,4-0.1c1.6,0,3.1-0.1,4.7-0.2c1.6-0.1,3.1-0.2,4.5-0.4
	c1.4-0.2,2.5-0.4,3.4-0.6v31.5H21.2L21.2,139.1z"/>
<path d="M60.9,140.1h-5.3c-2,0-3.6-0.2-5-0.7c-1.3-0.5-2.4-1.1-3.3-1.9c-0.8-0.8-1.4-1.8-1.8-2.9c-0.4-1.1-0.5-2.3-0.5-3.5v-15.8
	c0-0.8-0.1-1.6-0.3-2.4c-0.2-0.8-0.5-1.5-0.9-2.1c-0.2-0.3-0.6-0.5-0.9-0.6c-0.4-0.1-0.8-0.2-1.1-0.2c-0.4,0-0.7,0.1-1,0.3
	c-0.3,0.2-0.6,0.5-0.9,0.8c-0.4,0.4-0.8,1-1,1.6c-0.2,0.6-0.4,1.2-0.6,1.9c-0.2,0.7-0.3,1-0.3,1.7c-0.1,0.7-0.1,1.4-0.1,1.9v20.8
	h4.5v1H20.9v-1h4.5v-29.3h-4.6v-1c1.1,0,2.5,0,4.1-0.1c1.6,0,3.2-0.1,4.8-0.2c1.6-0.1,3.1-0.2,4.6-0.4c1.4-0.2,2.6-0.4,3.4-0.6v4.6
	c0.3-0.7,0.7-1.2,1-1.7c0.4-0.4,0.9-1,1.5-1.4c1-0.8,1.9-1.3,3-1.7c1.1-0.4,2.2-0.5,3.4-0.5c1.2,0,2.5,0.1,3.9,0.3
	c1.4,0.2,2.6,0.6,3.6,1.3c1,0.7,1.8,1.6,2.4,2.8c0.2,0.4,0.4,0.9,0.5,1.4c0.1,0.5,0.2,0.9,0.2,1.4v17.7c0,2.4,0.3,3.8,0.8,5.2
	c0.5,1.4,1.5,2.1,2.8,2.1V140.1L60.9,140.1z"/>
<path d="M83.3,121.7c0.5,0.4,1.1,0.8,1.8,1.4c0.6,0.6,1.2,1.2,1.8,1.9c0.6,0.7,1,1.5,1.4,2.4c0.4,0.9,0.5,1.8,0.5,2.8
	c0,1.6-0.3,3-1,4.3c-0.7,1.3-1.7,2.4-2.9,3.3c-1.2,0.9-2.7,1.6-4.4,2.1c-1.7,0.5-3.6,0.8-5.6,0.8c-1.6,0-3.1-0.3-4.7-0.8
	c-1.6-0.5-3.1-1.2-4.6-2c-0.2-0.1-0.4-0.1-0.5-0.1c-0.6,0-1.1,0.1-1.6,0.4c-0.4,0.2-0.8,0.5-1.1,0.8c-0.4,0.4-0.7,0.7-0.9,1.1h-0.7
	V126h0.7c0.1,0.9,0.3,1.9,0.5,2.8c0.2,0.8,0.5,1.2,0.8,2.1c0.3,0.9,0.7,1.8,1.2,2.6c0.6,1,1.2,1.9,1.8,2.7c0.6,0.8,1.3,1.3,2.1,1.7
	c0.9,0.5,2,0.9,3.1,1.2s2.2,0.4,3.3,0.4c0.8,0,1.5,0,2.3-0.1c0.8,0,1.5-0.2,2.1-0.3c0.6-0.2,1.2-0.4,1.6-0.8
	c0.4-0.3,0.6-0.8,0.6-1.4c0-1-0.5-1.4-1.4-2.2c-0.9-0.8-2.1-1.6-3.5-2.4c-1.4-0.8-2.9-1.6-4.5-2.5c-1.6-0.9-3.1-1.8-4.5-2.9
	c-0.9-0.7-1.7-1.4-2.4-2.1c-0.7-0.7-1.3-1.3-1.8-2.1c-0.5-0.7-0.9-1.5-1.1-2.3c-0.3-0.8-0.4-1.7-0.4-2.8c0-1.6,0.3-3.1,1-4.3
	c0.7-1.2,1.6-2.2,2.6-2.9c1.1-0.8,2.2-1.3,3.5-1.7c1.2-0.4,2.4-0.5,3.6-0.5c1,0,1.8,0.1,2.5,0.2c0.7,0.1,1.4,0.3,2,0.5
	c0.7,0.2,1.4,0.5,2.1,0.9c0.8,0.4,1.7,0.8,2.9,1.3c0.1,0,0.2,0.1,0.4,0.1c0.6,0,1.1-0.1,1.5-0.4c0.4-0.2,0.8-0.5,1-0.8
	c0.3-0.4,0.5-0.8,0.7-1.2h0.6l1.3,11.4h-1.1c-0.1-0.5-0.3-1-0.5-1.6c-0.2-0.5-0.5-1.1-0.8-1.8c-0.4-0.7-0.8-1.4-1.4-2.1
	c-0.3-0.4-0.7-0.9-1.4-1.5c-0.6-0.6-0.8-0.7-1.6-1.2c-0.3-0.2-0.7-0.4-1.1-0.7c-0.5-0.3-1-0.6-1.6-0.8c-0.6-0.3-1.3-0.5-2-0.7
	c-0.7-0.2-1.4-0.3-2.2-0.3c-0.4,0-0.9,0-1.4,0.1c-0.5,0-1,0.1-1.4,0.3c-0.4,0.1-0.8,0.3-1.1,0.6c-0.3,0.3-0.4,0.6-0.4,1.1
	c0,1.4,0.4,2,1.3,2.8c0.9,0.8,2,1.5,3.4,2.2c1.6,0.8,3.2,1.7,4.9,2.6C80.5,120,82,120.8,83.3,121.7L83.3,121.7z"/>
<path d="M117.6,110c1.4,0.8,2.6,1.8,3.5,2.9c0.9,1.1,1.6,2.3,2.1,3.5c0.5,1.2,0.9,2.5,1.1,3.9c0.2,1.3,0.3,2.7,0.3,4
	c0,1.3-0.1,2.7-0.3,4c-0.2,1.3-0.6,2.7-1.1,3.9c-0.5,1.3-1.2,2.4-2.1,3.5c-0.9,1.1-2.1,2.1-3.5,2.9c-1.2,0.7-2.5,1.2-3.9,1.6
	c-1.3,0.3-2.6,0.5-3.9,0.5c-1,0-2-0.1-3-0.3c-0.4,0-0.8-0.1-1.1-0.3c-0.3-0.1-0.6-0.3-1-0.5c-0.3-0.2-0.7-0.4-0.8-0.6
	c-0.5-0.5-0.9-1-1.2-1.3c-0.3-0.3-0.5-0.7-0.7-1.1v13.1h4.5v1H86.4v-1H91v-40.3h-4.6v-1H91c1.5-0.1,2.9-0.2,4.3-0.3
	c1.2-0.1,2.4-0.2,3.6-0.4c1.2-0.2,2.3-0.4,3.1-0.6v5.3c0.2-0.3,0.5-0.7,0.8-1.1c0.3-0.4,0.7-0.8,1.1-1.2c0.7-0.7,1.6-1.2,2.8-1.6
	c1.2-0.4,2.5-0.6,3.9-0.6c1.1,0,2.3,0.2,3.4,0.5C115.3,108.8,116.5,109.3,117.6,110L117.6,110z M110.5,135.3
	c0.7-1.1,1.2-2.7,1.3-4.9c0.1-2.1,0.2-3.5,0.2-6.1c0-2.6-0.1-4.1-0.2-6.3c-0.1-2.2-0.5-3.9-1.3-5c-0.4-0.6-0.9-1.2-1.5-1.7
	c-0.6-0.5-1.3-0.8-2-0.8c-0.4,0-0.8,0.1-1.2,0.2c-0.5,0.2-1,0.4-1.5,0.8c-0.4,0.4-0.8,0.8-1,1.3c-0.2,0.5-0.5,1-0.7,1.6
	c-0.2,0.7-0.4,1.4-0.5,2.2c-0.1,0.8-0.1,1.5-0.1,2.4v12c0,1.4,0.2,2.3,0.5,3.5c0.1,0.5,0.3,1,0.5,1.4c0.2,0.5,0.5,0.9,0.8,1.2
	c0.8,0.7,1.5,1.1,2.4,1.1c0.5,0,0.9-0.1,1.4-0.3c0.4-0.2,0.8-0.5,1.2-0.8c0.4-0.3,0.7-0.7,0.9-1
	C110.1,135.8,110.3,135.5,110.5,135.3L110.5,135.3z"/>
<path d="M143.5,139.1v1h-21.2v-1h4.6v-29.3h-4.6v-1c1.1,0,2.5,0,4-0.1c1.6,0,3.1-0.1,4.7-0.2c1.6-0.1,3.1-0.2,4.5-0.4
	c1.4-0.2,2.5-0.4,3.4-0.6v31.5H143.5L143.5,139.1z"/>
<path d="M199.4,132.7c-0.6,1.1-1.3,2.1-2.1,2.9c-0.8,0.8-1.8,1.5-2.9,2c-1.1,0.5-1.9,0.8-3.4,0.8c-2,0-3.6-0.4-4.7-1.2
	c-1.1-0.8-2-1.8-2.6-3.1c-0.6-1.3-1-2.7-1.1-4.3c-0.2-1.6-0.2-3.2-0.2-4.8v-0.8h9.7c1.1,0,2.3,0,3.6-0.1c1.3-0.1,2.5-0.3,3.6-0.7
	c1.1-0.4,2-0.9,2.8-1.6c0.7-0.7,1.1-1.7,1.1-3c0-2.2-0.5-4-1.4-5.3c-0.9-1.4-2.2-2.5-3.6-3.3c-1.5-0.8-3.1-1.4-4.9-1.7
	c-1.8-0.3-3.6-0.5-5.2-0.5c-0.8,0-1.8,0.1-3,0.2c-1.2,0.1-2.5,0.4-3.8,0.8c-1.3,0.4-2.7,0.9-4,1.7c-0.8,0.5-1.6,1-2.4,1.7
	c-1-2-3.3-3.5-5.9-3.5c-3.5-0.1-6.5,1-8.4,4c-0.2,0.4-0.5,0.8-0.6,1.2v-6.5c-0.8,0.2-2,0.4-3.3,0.6c-1.4,0.2-2.8,0.3-4.4,0.4
	c-1.6,0.1-3.1,0.2-4.7,0.2c-1.5,0-2.9,0.1-4,0.1v1h4.6v29.3h-4.6v1h20.9v-1h-4.5v-16.6c0-2.2,0-2.4,0.1-4c0-1,0.1-2.7,0.8-4.2
	c0.5-1.2,1.6-2.2,2.8-3c-0.7,0.9-1.2,2-1.2,3.3c0,3.2,2.9,5.7,6.5,5.7c0.5,0,1-0.1,1.5-0.2c-0.1,0.5-0.2,1-0.3,1.4
	c-0.1,0.9-0.2,1.8-0.2,2.8c0,3.1,0.6,5.8,1.8,8c1.2,2.2,2.6,3.8,4.3,4.9c1.3,0.8,2.4,1.5,3.4,1.9c1,0.4,1.9,0.8,2.7,1
	c0.9,0.2,1.7,0.4,2.6,0.4c0.8,0,1.8,0.1,2.9,0.1c2.4,0,4.4-0.3,6-0.8c1.6-0.6,3-1.3,4-2.4c1.1-1,2-2.2,2.6-3.6
	c0.7-1.4,1.3-2.9,1.8-4.5l-1.1-0.1C200.5,130.5,200,131.6,199.4,132.7L199.4,132.7z M182.3,120.5c0-1.2,0-2.6,0.1-4
	c0.1-1.4,0.3-2.2,0.6-3.4c0.3-1.2,0.7-2.1,1.3-2.9c0.6-0.8,1.3-1.2,2.4-1.2h0.2c0.6,0,1.1,0.1,1.7,0.4c0.5,0.3,1,0.8,1.5,1.6
	c0.4,0.8,0.8,1.8,1.1,3.2c0.3,1.4,0.4,2.2,0.4,4.4c0,0.1,0,0.3,0,0.6c0,0.3-0.1,0.6-0.1,1c-0.1,0.4-0.2,0.8-0.3,1.1
	c-0.1,0.4-0.3,0.7-0.6,0.9c-0.4,0.4-1,0.6-1.6,0.7c-0.6,0.1-1,0.1-1.2,0.1h-5.3V120.5L182.3,120.5z"/>
<path d="M194.2,150.7v-4.4h0l2,4.4h1.2V144h-1.2v4h0l-1.8-4H193v6.8H194.2L194.2,150.7z M184.7,146c0-0.8,0.3-1,0.8-1
	c0.5,0,0.8,0.2,0.8,1v2.8c0,0.8-0.3,1-0.8,1c-0.5,0-0.8-0.2-0.8-1V146L184.7,146z M183.4,148.6c0,1.7,0.9,2.3,2.1,2.3
	c1.3,0,2.1-0.6,2.1-2.3v-2.4c0-1.7-0.9-2.3-2.1-2.3c-1.3,0-2.1,0.6-2.1,2.3V148.6L183.4,148.6z M178.2,144h-1.3v6.8h1.3V144
	L178.2,144z M167.5,144v1.1h1.5v5.6h1.3v-5.6h1.5V144H167.5L167.5,144z M159.6,150.7l0.4-1.4h1.8l0.3,1.4h1.2l-1.6-6.8h-1.7
	l-1.7,6.8H159.6L159.6,150.7z M160.9,145.4L160.9,145.4l0.6,2.7h-1.3L160.9,145.4L160.9,145.4z M150.8,145.1h0.5
	c0.8,0,1.1,0.4,1.1,1.4v1.8c0,1-0.4,1.4-1.1,1.4h-0.5V145.1L150.8,145.1z M149.5,150.7h1.8c1.5,0,2.3-0.6,2.4-2.4v-2.1
	c-0.1-1.7-0.9-2.3-2.4-2.3h-1.8V150.7L149.5,150.7z M140.9,150.7v-4.4h0l2,4.4h1.2V144H143v4h0l-1.8-4h-1.4v6.8H140.9L140.9,150.7z
	 M129.9,144v4.8c0,1.5,0.9,2.1,2.2,2.1s2.2-0.6,2.2-2.1V144h-1.3v4.7c0,0.6-0.3,1-0.9,1c-0.6,0-0.9-0.3-0.9-1V144H129.9L129.9,144z
	 M121.7,146c0-0.8,0.3-1,0.8-1c0.5,0,0.8,0.2,0.8,1v2.8c0,0.8-0.3,1-0.8,1c-0.5,0-0.8-0.2-0.8-1V146L121.7,146z M120.4,148.6
	c0,1.7,0.9,2.3,2.1,2.3c1.3,0,2.1-0.6,2.1-2.3v-2.4c0-1.7-0.9-2.3-2.1-2.3c-1.3,0-2.1,0.6-2.1,2.3V148.6L120.4,148.6z M113.4,150.7
	v-2.9h1.6v-1.1h-1.6v-1.6h2.1V144h-3.4v6.8H113.4L113.4,150.7z"/>
</svg>
